<svg id="Layer_1" height="512" viewBox="0 0 512 512" width="512" xmlns="http://www.w3.org/2000/svg" data-name="Layer 1"><path d="m272.97 111.39a355.479 355.479 0 0 1 1.98 39.31l-1.67 1.55a97.176 97.176 0 0 0 -44.3 2.28l-.51-1.66c.58-7.04 1.25-13.9 1.89-20.52 5.21-53.76 8.46-92.51-55.63-97.83l-.5-23.28c69.35-4.03 92.52 44.05 98.74 100.15z" fill="#4b651a"/><path d="m272.97 111.39c-6.22-56.1-29.39-104.18-98.74-100.15l.01.442c53.439 5.888 72.524 49.6 78.08 99.708a355.479 355.479 0 0 1 1.98 39.31l-.031.029c.577-.009 1.151-.029 1.731-.029a94.691 94.691 0 0 1 17.28 1.55l1.67-1.55a355.479 355.479 0 0 0 -1.98-39.31z" fill="#689b2d"/><path d="m200.97 459.85c-11.94 14.77-23 23.47-29.17 23.47-50.99 0-69.73-65.5-69.73-139.16 0-58.35-49.79-107.87-33.34-162 7.7-25.36 29.55-39.33 50.79-43.27 11.31-2.1 22.8-.67 34.06 3.78 14.59 5.76 28.8 16.61 41.71 31.44a83.147 83.147 0 0 1 33.69-19.58 97.176 97.176 0 0 1 44.3-2.28 83.387 83.387 0 0 1 43.22 22.1c13.95-16.09 29.41-27.52 45.25-32.9a60.226 60.226 0 0 1 30.73-2.56c21.24 3.94 43.09 17.91 50.79 43.27 16.45 54.13-33.34 103.65-33.34 162 0 73.66-16.48 139.16-69.73 139.16-7.02 0-18.06-8.23-29.7-22.25-15.62 24.43-34.35 39.93-54.5 39.93-20.38 0-39.32-16.02-55.03-41.15z" fill="#ffd400"/><path d="m216.368 345.356c-11.1-62.888-74.191-106.784-66.763-168.254a64.56 64.56 0 0 1 12.089-30.686 81.109 81.109 0 0 0 -8.114-3.746c-11.26-4.45-22.75-5.88-34.06-3.78-21.24 3.94-43.09 17.91-50.79 43.27-16.45 54.13 33.34 103.65 33.34 162 0 73.66 18.74 139.16 69.73 139.16 6.17 0 17.23-8.7 29.17-23.47 15.71 25.13 34.65 41.15 55.03 41.15 13.744 0 26.826-7.216 38.713-19.553-41.063-10.129-66.435-68.647-78.345-136.091z" fill="#edc003"/><path d="m361.75 141.45c-15.84 5.38-31.3 16.81-45.25 32.9a83.387 83.387 0 0 0 -43.22-22.1l1.67-1.55a355.479 355.479 0 0 0 -1.98-39.31c44.33-14.43 71.14 8.36 88.78 30.06z" fill="#e5bd41"/><path d="m230.12 132.33.24.02c-.64 6.62-1.31 13.48-1.89 20.52l.51 1.66a83.147 83.147 0 0 0 -33.69 19.58c-12.91-14.83-27.12-25.68-41.71-31.44 6.92-23.48 54.09-36.24 76.54-10.34z" fill="#e5bd41"/><g opacity=".6"><path d="m117.2 271a6 6 0 0 1 -5.576-3.78c-1.933-4.85-4.187-10.592-6.251-16.4-1.611-4.546-2.95-8.663-4.095-12.588a144.277 144.277 0 0 1 -3.681-15.64 107.232 107.232 0 0 1 -1.514-13.8 6 6 0 0 1 11.99-.5 95.163 95.163 0 0 0 1.347 12.244 132.242 132.242 0 0 0 3.38 14.339c1.078 3.7 2.349 7.6 3.883 11.931 2 5.618 4.2 11.227 6.089 15.973a6 6 0 0 1 -5.572 8.221z" fill="#e9e9e9"/></g><g opacity=".6"><path d="m132.7 312.841a6 6 0 0 1 -5.754-4.306c-1.138-3.867-2.468-7.927-4.066-12.411a6 6 0 1 1 11.3-4.028c1.673 4.7 3.071 8.966 4.274 13.049a6 6 0 0 1 -5.758 7.7z" fill="#e9e9e9"/></g></svg>