<svg id="Capa_1" enable-background="new 0 0 512 512" height="512" viewBox="0 0 512 512" width="512" xmlns="http://www.w3.org/2000/svg"><g><g><path d="m276.604 0c47.159 0 185.271 117.23 185.271 261.84 0 115.301-87.801 213.196-147.296 248.142-1.872 1.1-3.839 1.725-5.793 1.936h-41.207c.741-.08 74.058-131.782 74.096-223.207.062-149.603-77.007-288.711-106.279-288.711z" fill="#c6c1c8"/></g><g><path d="m152.594 398.169c0 34.303 35.289 65.976 54.962 83.182-10.173-16.258-17.476-35.702-17.476-56.595 0-57.082 54.517-103.356 73.132-103.356 1.295 0 2.764.224 4.377.66-12.496-12.059-26.058-33.349-33.136-33.349-17.443 0-81.859 55.972-81.859 109.458z" fill="#c6c1c8"/></g><g><path d="m235.396 0c-47.159 0-185.271 117.23-185.271 261.84 0 115.301 87.801 213.196 147.296 248.142 9.614 5.647 21.723-1.22 21.723-12.37 0-2.881-.859-5.657-2.42-7.992-31.43-16.566-66.782-50.493-92.821-88.823-21.281-31.323-46.648-80.856-46.648-138.958 0-75.951 42.893-137.57 68.461-167.542 40.813-47.841 80.152-67.169 89.681-67.169s48.868 19.328 89.681 67.169c25.568 29.972 68.461 91.591 68.461 167.542 0 58.101-25.368 107.635-46.648 138.959-25.927 38.159-60.989 71.873-92.993 89.086-1.452 2.279-2.248 4.954-2.248 7.727 0 11.15 12.11 18.017 21.723 12.37 59.495-34.946 147.296-132.84 147.296-248.142-.001-144.609-138.113-261.839-185.273-261.839z" fill="#f1f1f4"/></g><g><path d="m346.89 400.799c21.281-31.324 46.648-80.857 46.648-138.959 0-75.951-42.893-137.57-68.461-167.542-40.813-47.841-80.152-67.169-89.681-67.169s-48.867 19.328-89.681 67.169c-25.568 29.972-68.461 91.591-68.461 167.542 0 58.101 25.368 107.635 46.648 138.958 26.039 38.33 61.392 72.257 92.821 88.823-.873-1.306-1.965-2.473-3.25-3.445-21.115-15.963-46.602-48.69-46.602-86.47 0-53.486 51.082-96.845 68.525-96.845s68.525 43.359 68.525 96.845c0 37.78-25.487 70.507-46.602 86.47-1.371 1.036-2.523 2.297-3.423 3.709 32.004-17.213 67.067-50.928 92.994-89.086z" fill="#e4936b"/></g><g><path d="m325.077 94.298c-40.813-47.841-80.152-67.169-89.681-67.169-.288 0-.603.018-.944.053 14.716 10.752 31.932 26.014 49.418 46.512 25.568 29.972 68.461 91.591 68.461 167.542 0 58.101-25.368 107.635-46.648 138.959-1.016 1.496-2.047 2.985-3.09 4.466.861 4.903 1.329 9.927 1.329 15.044 0 37.78-25.487 70.507-46.602 86.47-1.371 1.036-2.523 2.297-3.423 3.709 32.004-17.213 67.066-50.928 92.994-89.086 21.281-31.324 46.648-80.857 46.648-138.959-.001-75.95-42.893-137.569-68.462-167.541z" fill="#e27d47"/></g><path d="m372.582 354.909c-6.932 15.527-14.811 29.3-22.375 40.904-16.37 11.932-34.327 22.001-49.467 27.234 1.541-5.692 2.58-11.582 2.987-17.621 22.029-9.386 52.719-31.431 68.855-50.517zm-117.787-235.315c41.194 0 85.613 19.6 112.98 53.777 5.994 7.481 11.288 15.645 15.762 24.305-6.424-20.757-15.317-39.568-24.785-55.887-29.531-24.195-67.79-37.647-103.958-37.647-3.892 0-7.795.158-11.672.471v-20.666c3.856-.272 7.761-.41 11.672-.41 27.008 0 53.131 6.47 77.224 19.183-2.416-3.034-4.743-5.845-6.941-8.422-5.585-6.547-11.143-12.56-16.6-18.063-17.322-5.414-35.316-8.151-53.682-8.151-3.906 0-7.808.126-11.672.375v-39.454c-3.408-1.267-6.036-1.876-7.726-1.876s-4.319.608-7.726 1.876v39.455c-3.864-.249-7.766-.375-11.672-.375-18.366 0-36.36 2.737-53.682 8.151-5.457 5.503-11.015 11.515-16.6 18.062-2.199 2.577-4.526 5.389-6.942 8.424 24.092-12.714 50.215-19.184 77.225-19.184 3.911 0 7.816.138 11.672.41v20.664c-3.877-.313-7.78-.471-11.672-.471-36.167 0-74.427 13.451-103.957 37.646-9.468 16.32-18.362 35.13-24.786 55.888 4.474-8.659 9.768-16.823 15.764-24.306 27.366-34.175 71.785-53.775 112.979-53.775 3.896 0 7.801.177 11.672.527v20.712c-3.884-.423-7.785-.636-11.672-.636-34.67 0-67.103 16.616-88.982 45.587-17.149 22.708-26.594 51.681-26.594 81.579s9.445 58.871 26.593 81.579c10.876 14.404 24.232 25.726 39.699 33.651.567.29 1.154.504 1.747.645.988-5.146 2.406-10.153 4.166-14.988-12.897-6.823-24.088-16.446-33.28-28.62-15.136-20.044-23.472-45.709-23.472-72.268s8.336-52.223 23.472-72.268c18.933-25.068 46.871-39.446 76.651-39.446 3.887 0 7.793.249 11.672.742v20.828c-3.852-.643-7.753-.967-11.672-.967-23.267 0-45.212 11.392-60.21 31.258-12.452 16.498-19.309 37.754-19.309 59.852 0 22.102 6.858 43.354 19.311 59.843 7.153 9.469 15.795 16.994 25.696 22.372 2.679-4.555 5.61-8.864 8.689-12.886-8.497-4.352-15.922-10.682-22.054-18.8-10.44-13.822-16.189-31.768-16.189-50.529 0-18.76 5.75-36.709 16.19-50.541 12.05-15.962 29.501-25.116 47.877-25.116 3.93 0 7.838.417 11.672 1.243v21.345c-3.764-1.312-7.683-1.984-11.672-1.984-23.966 0-43.463 24.697-43.463 55.053 0 25.281 13.487 46.93 32.237 53.211 4.75-4.426 9.483-8.128 13.889-10.984-16.049.259-30.673-20.532-30.673-42.227 0-21.836 12.565-39.601 28.011-39.601 4.031 0 8.013 1.26 11.672 3.672v73.299c2.973-1.229 5.6-1.874 7.726-1.874s4.753.645 7.726 1.874v-73.299c3.659-2.412 7.641-3.672 11.672-3.672 15.445 0 28.011 17.765 28.011 39.601 0 21.999-15.759 42.359-32.082 41.336 4.797 2.96 10.037 6.973 15.298 11.875 18.75-6.282 32.237-27.93 32.237-53.211 0-30.356-19.497-55.053-43.463-55.053-3.989 0-7.908.672-11.672 1.984v-21.345c3.835-.825 7.742-1.243 11.672-1.243 18.375 0 35.826 9.154 47.876 25.115 10.441 13.833 16.191 31.783 16.191 50.542 0 18.762-5.749 36.707-16.189 50.529-6.131 8.118-13.556 14.448-22.053 18.801 3.079 4.023 6.009 8.331 8.689 12.886 9.901-5.38 18.544-12.905 25.695-22.373 12.453-16.489 19.311-37.741 19.311-59.843 0-22.099-6.858-43.354-19.31-59.853-14.998-19.864-36.944-31.257-60.209-31.257-3.919 0-7.82.324-11.672.967v-20.828c3.879-.493 7.785-.742 11.672-.742 29.78 0 57.718 14.377 76.651 39.446 15.136 20.044 23.472 45.709 23.472 72.268s-8.336 52.223-23.473 72.268c-9.191 12.174-20.382 21.797-33.279 28.62 1.76 4.835 3.178 9.842 4.166 14.988.594-.141 1.18-.354 1.747-.645 15.467-7.925 28.823-19.246 39.698-33.651 17.149-22.708 26.594-51.681 26.594-81.579s-9.445-58.871-26.594-81.579c-21.879-28.971-54.312-45.587-88.982-45.587-3.887 0-7.788.213-11.672.636v-20.712c3.866-.351 7.771-.527 11.667-.527zm-87.73 285.832c-22.028-9.386-52.718-31.43-68.854-50.517 6.931 15.523 14.807 29.293 22.37 40.896 16.423 11.979 34.421 22.079 49.474 27.249-1.543-5.694-2.582-11.587-2.99-17.628z" fill="#e27d47"/><path d="m383.538 197.675c-4.474-8.659-9.768-16.824-15.762-24.305-11.156-13.932-25.146-25.441-40.596-34.188-4.073-8.296-8.41-16.104-12.823-23.369 15.916 6.296 31.048 15.038 44.396 25.974 9.468 16.32 18.361 35.131 24.785 55.888zm-10.956 157.234c-16.137 19.087-46.826 41.131-68.855 50.517-.519 6.242-1.01 10.004-2.987 17.621 15.14-5.233 33.097-15.302 49.467-27.234 7.565-11.605 15.443-25.377 22.375-40.904zm-28.805-5.966c17.149-22.708 26.594-51.681 26.594-81.579 0-28.918-8.836-56.97-24.932-79.326 4.296 16.694 6.892 34.512 6.892 53.199 0 .227 0 .454-.001.681 1.708 8.279 2.588 16.815 2.588 25.445 0 26.558-8.336 52.223-23.473 72.268-1.966 2.604-4.025 5.092-6.171 7.46-6.362 12.519-13.163 23.642-19.591 33.104-.552.812-1.108 1.622-1.668 2.43.021-.011.043-.021.064-.031 15.466-7.925 28.823-19.247 39.698-33.651zm-18.7-254.645c-5.585-6.547-11.143-12.56-16.6-18.063-9.12-2.851-18.427-4.959-27.876-6.316 1.088 1.238 2.178 2.496 3.269 3.775 3.719 4.359 7.803 9.387 12.07 15.032 12.412 3.201 24.481 7.874 36.079 13.994-2.417-3.034-4.743-5.845-6.942-8.422zm-89.865-67.166c-.044.001-.087.002-.132.004-.005 0-.01 0-.015.001-.048.002-.098.005-.148.008-.017.001-.034.002-.052.003-.036.002-.071.005-.108.008-.018.001-.036.003-.055.004-.047.004-.095.008-.143.013-.022.002-.045.004-.067.007-.014.001-.028.003-.042.004 2.804 2.049 5.7 4.262 8.67 6.644v-4.822c-3.296-1.226-5.863-1.835-7.557-1.874-.005 0-.011 0-.016 0-.052-.001-.103-.002-.153-.002-.046 0-.094.001-.142.002-.011-.001-.026 0-.04 0z" fill="#dd6938"/><g><circle cx="235.396" cy="261.84" fill="#fff" r="13.941"/></g></g></svg>